<svg iwidth="128" height="128" xmlns="http://www.w3.org/2000/svg" viewBox="0 0 128 128"><title>adminUser</title><path d="M128.47,98.79v17.81c-.14,0-.38,0-.4.1-.95,2.7-3,3.28-5.62,3.28q-32.76,0-65.52,0H5.69c-3.61,0-5.33-1.72-5.33-5.28,0-3.94,0-7.89,0-11.83,0-8,1.58-15.5,5.79-22.42,3-5,6.45-9.55,11.21-13,2.26-1.63,4.58-3.19,7.12-5-.5-.42-1-.82-1.53-1.3a30.75,30.75,0,0,1-7.63-12.7c-2.79-8.75-1.49-17.14,3.31-25a31,31,0,0,1,19-14A31,31,0,0,1,50,8.59a31.36,31.36,0,0,1,13.62,4.95,1.82,1.82,0,0,0,1.48,0c1.11-.49,2.14-1.15,3.22-1.7A31.7,31.7,0,0,1,90.67,9.35,30.25,30.25,0,0,1,108.8,21.48c6.84,9.64,7.64,20.14,3,31a19.51,19.51,0,0,1-4.51,6.86c-1.11,1-2.06,2.25-3.13,3.43.74.42,1.36.82,2,1.15a40,40,0,0,1,12.43,10.57A42.21,42.21,0,0,1,128,97.76,3.66,3.66,0,0,0,128.47,98.79ZM82.6,110.94c0-3.23.09-6.36,0-9.48a34.57,34.57,0,0,0-6.23-19.24,37.65,37.65,0,0,0-17-13.34,3.62,3.62,0,0,0-2,0c-3,.59-5.91,1.49-8.91,1.85a31.29,31.29,0,0,1-14.12-2,1.82,1.82,0,0,0-1.26,0c-2.59,1.24-5.26,2.37-7.71,3.86A34,34,0,0,0,15,83.08a32.19,32.19,0,0,0-5.42,17.33c-.1,3.48,0,7,0,10.52ZM69,39.63C69,28,58.86,17.28,46,17.31c-12.61,0-22.8,10.24-22.84,22.16,0,12.08,10.22,22.46,23,22.46S69,51.26,69,39.63ZM71.3,20.39q13.71,19.31,0,38.45c9,5.15,20.39,4,28.48-4.53,7.32-7.75,7.55-20.53.52-28.84A23,23,0,0,0,71.3,20.39Zm20.52,90.55h27.47c0-2.61,0-5.16,0-7.71A35.09,35.09,0,0,0,117.69,92c-2.24-6.51-5.37-12.38-10.9-16.63a84,84,0,0,0-8.43-5.52,6.93,6.93,0,0,0-6.44-.51,28,28,0,0,1-7.14,1.33,60.36,60.36,0,0,1-6.1,0c.61.67,1.13,1.22,1.62,1.8A47.21,47.21,0,0,1,89.48,88a47.47,47.47,0,0,1,2.33,15C91.84,105.6,91.82,108.23,91.82,110.94Z"/></svg>