<svg width="128" height="128" xmlns="http://www.w3.org/2000/svg" viewBox="0 0 128 128"><title>message</title><path d="M128.25,21.25v66a4,4,0,0,0-.24.68,18,18,0,0,1-6.89,11.63A18.89,18.89,0,0,1,109,103.4q-25.37,0-50.73,0a3.79,3.79,0,0,0-2.16.68c-7.41,5.66-14.78,11.37-22.17,17.06a18,18,0,0,1-2.55,1.78A3.78,3.78,0,0,1,26,120.4a8.73,8.73,0,0,1-.19-1.86c0-4.58-.06-9.16-.09-13.74,0-.44,0-.88-.07-1.41-2.3,0-4.47,0-6.63,0-7.9-.13-13.69-3.67-17.11-10.82A36.86,36.86,0,0,1,.25,87.25q0-33,0-66a3.87,3.87,0,0,0,.24-.68A18,18,0,0,1,17.39,5.24C24.17,5,31,5.12,37.76,5.11q35.68,0,71.35,0c8,0,14,3.52,17.49,10.82A36.7,36.7,0,0,1,128.25,21.25ZM33.5,111.49c.53-.35.84-.53,1.12-.75,5.84-4.5,11.69-9,17.49-13.53A7.54,7.54,0,0,1,57,95.51q26.05.05,52.11,0c6.93,0,11.29-4.37,11.29-11.32q0-30,0-60a13,13,0,0,0-.37-3.33C118.67,15.77,114.8,13,109.21,13H19.36c-6.94,0-11.3,4.36-11.3,11.32q0,30,0,60a13,13,0,0,0,.37,3.33,10.23,10.23,0,0,0,10.22,7.92c3.46.05,6.91,0,10.37,0,2.85,0,4.41,1.57,4.45,4.4,0,1.33,0,2.67,0,4C33.5,106.37,33.5,108.81,33.5,111.49Z"/></svg>